<svg xmlns="http://www.w3.org/2000/svg" viewBox="0 0 822.52 401.27"><defs><style>.cls-1{fill:#fff;}</style></defs><g id="Layer_2" data-name="Layer 2"><g id="Layer_1-2" data-name="Layer 1"><path class="cls-1" d="M282.71,45.15a22.94,22.94,0,0,0-8.21,8.34l-6.86,11.76a12.52,12.52,0,0,0-1.72,5.88q0,5.9,6.62,5.89,8.82,0,8.82,4.16,0,3.67-6.37,5.89a27.69,27.69,0,0,1-9.07,1.71,19.9,19.9,0,0,0-10.41,3.43,22.79,22.79,0,0,0-8.21,8.34L127,309.12q-3.67,6.38-7.84,6.37a4.31,4.31,0,0,1-3.67-2.2L83.08,257.9a11,11,0,0,1-1.47-6.13,26.15,26.15,0,0,1,3.68-13.24L199,41.72a23.19,23.19,0,0,1,8.09-8.33A19.23,19.23,0,0,1,217.39,30h82.36q8.82,0,8.82,4.17,0,3.67-6.37,5.88a27.74,27.74,0,0,1-9.07,1.71A20,20,0,0,0,282.71,45.15Z"/><path class="cls-1" d="M307.1,157.9a12.8,12.8,0,0,1,1.47,6.61,22.34,22.34,0,0,1-2.94,11.28l-74,127.94a22.84,22.84,0,0,1-8.21,8.33q-5.52,3.44-10.17,3.43H154.41q-6.87,0-6.87-5.88a12.46,12.46,0,0,1,1.72-5.88L224,174.32l39.22-67.65q3.67-6.36,7.59-6.37a4.33,4.33,0,0,1,3.68,2.21Z"/><path class="cls-1" d="M249.5,315.49q-6.87,0-6.86-5.88a12.55,12.55,0,0,1,1.71-5.88l61.28-105.88a22.79,22.79,0,0,1,8.21-8.34,19.9,19.9,0,0,1,10.41-3.43h58.83q6.62,0,6.61,5.89a12.55,12.55,0,0,1-1.71,5.88L326.7,303.73a22.84,22.84,0,0,1-8.21,8.33c-3.67,2.29-7.07,3.43-10.17,3.43Z"/><path class="cls-1" d="M581.84,186.08q6.87,0,6.87,5.89a11.44,11.44,0,0,1-2,5.88l-61,105.88a25.42,25.42,0,0,1-8.34,8.33,19.23,19.23,0,0,1-10.29,3.43H424.74a19.24,19.24,0,0,0-10.28,3.44,25.38,25.38,0,0,0-8.32,8.34l-39,67.63q-3.67,6.38-7.6,6.37a3.9,3.9,0,0,1-3.67-2.45l-32.6-55.14a14.26,14.26,0,0,1-1.47-6.86,21,21,0,0,1,2.94-11l73.77-127.94a25.36,25.36,0,0,1,8.34-8.34,19.32,19.32,0,0,1,10.29-3.43Zm-84.35,23.51a11.16,11.16,0,0,0,2-5.87q0-5.88-6.86-5.87a19.29,19.29,0,0,0-10.3,3.43,25.48,25.48,0,0,0-8.33,8.33L426.49,292a12.27,12.27,0,0,0-1.75,5.87q0,5.86,6.86,5.87a19.29,19.29,0,0,0,10.3-3.43A23.11,23.11,0,0,0,450,292Z"/><path class="cls-1" d="M546.3,315.49q-6.85,0-6.86-5.88a12.46,12.46,0,0,1,1.72-5.88l61.27-105.88a22.87,22.87,0,0,1,8.21-8.34,20,20,0,0,1,10.42-3.43h58.82q6.61,0,6.62,5.89a12.57,12.57,0,0,1-1.72,5.88L623.51,303.73a22.92,22.92,0,0,1-8.21,8.33q-5.52,3.44-10.18,3.43Z"/><path class="cls-1" d="M666.4,394.9q-3.67,6.38-7.85,6.37a4.25,4.25,0,0,1-3.67-2.45l-32.36-55.14a11.76,11.76,0,0,1-1.47-6.13,25.25,25.25,0,0,1,3.68-13.23L738.45,127.26a22.92,22.92,0,0,1,8.21-8.33,19.87,19.87,0,0,1,10.42-3.43H815.9q6.61,0,6.62,5.88a12.46,12.46,0,0,1-1.72,5.88l-13.72,23.53a12.52,12.52,0,0,0-1.72,5.88q0,5.88,6.87,5.88,8.82,0,8.82,4.17,0,3.67-6.37,5.88a29.62,29.62,0,0,1-9.32,1.72,19.23,19.23,0,0,0-10.29,3.43,25.39,25.39,0,0,0-8.33,8.33Z"/><polygon class="cls-1" points="190.92 40.19 190.9 40.23 189.88 40.68 190.5 40.06 190.24 39.8 190.87 40.16 190.92 40.19"/><polygon class="cls-1" points="189.88 40.68 190.5 40.06 190.24 39.8 190.87 40.16 190.9 40.23 189.88 40.68"/><path class="cls-1" d="M190.9,40.23,179.6,59.79h0l-.07.12L94.43,207.31a44,44,0,0,1-60.18,16.12L30,221l36.38-63a44.06,44.06,0,0,1-45.66-10.45l-3.46-3.46L65.72,95.62l-3,1.33A44.06,44.06,0,0,1,4.6,74.48L0,64.09,51.44,41.33A43.84,43.84,0,0,1,41,11.36L41.33,0l96,3.1a42.57,42.57,0,0,1,5.9.59,44.06,44.06,0,0,1,43,26.15l4.57,10.32-.63-.36.26.26-.62.62Z"/><polygon class="cls-1" points="179.6 59.8 179.6 59.92 179.53 59.92 179.6 59.8"/></g></g></svg>