<svg width="196" height="84" viewBox="0 0 196 84" fill="none" xmlns="http://www.w3.org/2000/svg">
<rect width="196" height="84" rx="18" fill="white"/>
<path d="M21.6104 57C20.6434 57 19.7655 56.7583 18.9767 56.2748C18.1878 55.7913 17.5516 55.1551 17.0681 54.3663C16.5847 53.5774 16.3429 52.6995 16.3429 51.7325V34.7849C16.3429 33.7925 16.5847 32.9019 17.0681 32.113C17.5516 31.3242 18.1878 30.7007 18.9767 30.2427C19.7655 29.7592 20.6434 29.5175 21.6104 29.5175H39.2069V34.5178H21.8012C21.674 34.5178 21.5595 34.5686 21.4577 34.6704C21.3814 34.7468 21.3432 34.8486 21.3432 34.9758V39.9761C21.3432 40.1033 21.3814 40.2178 21.4577 40.3196C21.5595 40.396 21.674 40.4341 21.8012 40.4341H38.2908C39.2578 40.4341 40.1357 40.6759 40.9245 41.1594C41.7388 41.6174 42.375 42.2536 42.833 43.0679C43.3165 43.8567 43.5583 44.7346 43.5583 45.7016V51.7325C43.5583 52.6995 43.3165 53.5774 42.833 54.3663C42.3495 55.1551 41.7134 55.7913 40.9245 56.2748C40.1357 56.7583 39.2578 57 38.2908 57H21.6104ZM21.8012 51.9997H38.0999C38.2272 51.9997 38.3289 51.9615 38.4053 51.8852C38.5071 51.7834 38.558 51.6689 38.558 51.5417V45.9306C38.558 45.8034 38.5071 45.7016 38.4053 45.6253C38.3289 45.5235 38.2272 45.4726 38.0999 45.4726H21.3432V51.5417C21.3432 51.6689 21.3814 51.7834 21.4577 51.8852C21.5595 51.9615 21.674 51.9997 21.8012 51.9997ZM52.9219 57C51.9549 57 51.077 56.7455 50.2881 56.2366C49.4993 55.7022 48.8631 55.0151 48.3796 54.1754C47.8961 53.3357 47.6544 52.445 47.6544 51.5035V34.8995C47.6544 33.907 47.8961 33.0164 48.3796 32.2275C48.8631 31.4132 49.4993 30.7643 50.2881 30.2809C51.077 29.7719 51.9549 29.5175 52.9219 29.5175H69.6023C70.5692 29.5175 71.4472 29.7719 72.236 30.2809C73.0249 30.7643 73.661 31.4132 74.1445 32.2275C74.628 33.0164 74.8698 33.907 74.8698 34.8995V51.5035C74.8698 52.445 74.628 53.3357 74.1445 54.1754C73.661 55.0151 73.0249 55.7022 72.236 56.2366C71.4472 56.7455 70.5692 57 69.6023 57H52.9219ZM54.9449 51.7325H69.4114C69.5386 51.7325 69.6404 51.6943 69.7168 51.618C69.8186 51.5162 69.8695 51.4017 69.8695 51.2745V39.289L54.9449 51.7325ZM52.6547 47.0757L67.5792 34.6323H53.1127C52.9855 34.6323 52.871 34.6832 52.7692 34.7849C52.6929 34.8613 52.6547 34.9631 52.6547 35.0903V47.0757ZM91.1168 57V29.5556H113.256C114.223 29.5556 115.113 29.7974 115.927 30.2809C116.742 30.7643 117.391 31.4132 117.874 32.2275C118.358 33.0164 118.599 33.8943 118.599 34.8613V42.2663C118.599 43.2333 118.358 44.1239 117.874 44.9382C117.391 45.7525 116.742 46.4014 115.927 46.8849C115.113 47.3429 114.223 47.572 113.256 47.572L96.1553 47.6101V57H91.1168ZM96.6133 42.4953H113.027C113.154 42.4953 113.268 42.4572 113.37 42.3808C113.472 42.3045 113.523 42.2027 113.523 42.0755V35.0521C113.523 34.9249 113.472 34.8231 113.37 34.7468C113.268 34.645 113.154 34.5941 113.027 34.5941H96.6133C96.4861 34.5941 96.3716 34.645 96.2698 34.7468C96.1935 34.8231 96.1553 34.9249 96.1553 35.0521V42.0755C96.1553 42.2027 96.1935 42.3045 96.2698 42.3808C96.3716 42.4572 96.4861 42.4953 96.6133 42.4953ZM121.348 57V29.5175H126.387V40.7013H144.403V29.5175H149.442V57H144.403V45.8161H126.387V57H121.348ZM153.777 57V29.5556H175.916C176.883 29.5556 177.773 29.7974 178.588 30.2809C179.402 30.7643 180.051 31.4132 180.534 32.2275C181.018 33.0164 181.26 33.8943 181.26 34.8613V42.2663C181.26 43.2333 181.018 44.1239 180.534 44.9382C180.051 45.7525 179.402 46.4014 178.588 46.8849C177.773 47.3429 176.883 47.572 175.916 47.572L158.816 47.6101V57H153.777ZM159.274 42.4953H175.687C175.814 42.4953 175.929 42.4572 176.03 42.3808C176.132 42.3045 176.183 42.2027 176.183 42.0755V35.0521C176.183 34.9249 176.132 34.8231 176.03 34.7468C175.929 34.645 175.814 34.5941 175.687 34.5941H159.274C159.146 34.5941 159.032 34.645 158.93 34.7468C158.854 34.8231 158.816 34.9249 158.816 35.0521V42.0755C158.816 42.2027 158.854 42.3045 158.93 42.3808C159.032 42.4572 159.146 42.4953 159.274 42.4953Z" fill="#090909"/>
</svg>
