<svg width="197" height="84" viewBox="0 0 197 84" fill="none" xmlns="http://www.w3.org/2000/svg">
<rect width="197" height="84" rx="18" fill="white"/>
<path d="M21.924 57C20.957 57 20.0791 56.7583 19.2903 56.2748C18.5014 55.7913 17.8653 55.1551 17.3818 54.3663C16.8983 53.5774 16.6565 52.6995 16.6565 51.7325V49.9385H21.6568V51.5417C21.6568 51.6689 21.695 51.7834 21.7713 51.8852C21.8731 51.9615 21.9876 51.9997 22.1149 51.9997H38.4135C38.5408 51.9997 38.6426 51.9615 38.7189 51.8852C38.8207 51.7834 38.8716 51.6689 38.8716 51.5417V45.9688C38.8716 45.8416 38.8207 45.7398 38.7189 45.6634C38.6426 45.5617 38.5408 45.5108 38.4135 45.5108H16.6565V29.5175H43.8719V34.5178H22.1149C21.9876 34.5178 21.8731 34.5686 21.7713 34.6704C21.695 34.7468 21.6568 34.8486 21.6568 34.9758V40.0143C21.6568 40.1415 21.695 40.256 21.7713 40.3578C21.8731 40.4341 21.9876 40.4723 22.1149 40.4723H38.6044C39.5714 40.4723 40.4493 40.714 41.2381 41.1975C42.0524 41.6556 42.6886 42.2917 43.1466 43.106C43.6301 43.8949 43.8719 44.7728 43.8719 45.7398V51.7325C43.8719 52.6995 43.6301 53.5774 43.1466 54.3663C42.6632 55.1551 42.027 55.7913 41.2381 56.2748C40.4493 56.7583 39.5714 57 38.6044 57H21.924ZM53.6083 57C52.6413 57 51.7634 56.7455 50.9745 56.2366C50.1857 55.7022 49.5495 55.0151 49.066 54.1754C48.5825 53.3357 48.3408 52.445 48.3408 51.5035V34.8995C48.3408 33.907 48.5825 33.0164 49.066 32.2275C49.5495 31.4132 50.1857 30.7643 50.9745 30.2809C51.7634 29.7719 52.6413 29.5175 53.6083 29.5175H70.2886C71.2556 29.5175 72.1335 29.7719 72.9224 30.2809C73.7112 30.7643 74.3474 31.4132 74.8309 32.2275C75.3144 33.0164 75.5561 33.907 75.5561 34.8995V51.5035C75.5561 52.445 75.3144 53.3357 74.8309 54.1754C74.3474 55.0151 73.7112 55.7022 72.9224 56.2366C72.1335 56.7455 71.2556 57 70.2886 57H53.6083ZM55.6313 51.7325H70.0978C70.225 51.7325 70.3268 51.6943 70.4032 51.618C70.5049 51.5162 70.5558 51.4017 70.5558 51.2745V39.289L55.6313 51.7325ZM53.3411 47.0757L68.2656 34.6323H53.7991C53.6719 34.6323 53.5574 34.6832 53.4556 34.7849C53.3792 34.8613 53.3411 34.9631 53.3411 35.0903V47.0757ZM91.8032 57V29.5556H113.942C114.909 29.5556 115.8 29.7974 116.614 30.2809C117.428 30.7643 118.077 31.4132 118.561 32.2275C119.044 33.0164 119.286 33.8943 119.286 34.8613V42.2663C119.286 43.2333 119.044 44.1239 118.561 44.9382C118.077 45.7525 117.428 46.4014 116.614 46.8849C115.8 47.3429 114.909 47.572 113.942 47.572L96.8417 47.6101V57H91.8032ZM97.2997 42.4953H113.713C113.84 42.4953 113.955 42.4572 114.056 42.3808C114.158 42.3045 114.209 42.2027 114.209 42.0755V35.0521C114.209 34.9249 114.158 34.8231 114.056 34.7468C113.955 34.645 113.84 34.5941 113.713 34.5941H97.2997C97.1725 34.5941 97.058 34.645 96.9562 34.7468C96.8799 34.8231 96.8417 34.9249 96.8417 35.0521V42.0755C96.8417 42.2027 96.8799 42.3045 96.9562 42.3808C97.058 42.4572 97.1725 42.4953 97.2997 42.4953ZM122.035 57V29.5175H127.073V40.7013H145.089V29.5175H150.128V57H145.089V45.8161H127.073V57H122.035ZM154.463 57V29.5556H176.602C177.569 29.5556 178.46 29.7974 179.274 30.2809C180.088 30.7643 180.737 31.4132 181.221 32.2275C181.704 33.0164 181.946 33.8943 181.946 34.8613V42.2663C181.946 43.2333 181.704 44.1239 181.221 44.9382C180.737 45.7525 180.088 46.4014 179.274 46.8849C178.46 47.3429 177.569 47.572 176.602 47.572L159.502 47.6101V57H154.463ZM159.96 42.4953H176.373C176.5 42.4953 176.615 42.4572 176.717 42.3808C176.819 42.3045 176.869 42.2027 176.869 42.0755V35.0521C176.869 34.9249 176.819 34.8231 176.717 34.7468C176.615 34.645 176.5 34.5941 176.373 34.5941H159.96C159.833 34.5941 159.718 34.645 159.616 34.7468C159.54 34.8231 159.502 34.9249 159.502 35.0521V42.0755C159.502 42.2027 159.54 42.3045 159.616 42.3808C159.718 42.4572 159.833 42.4953 159.96 42.4953Z" fill="#090909"/>
</svg>
