<svg width="251" height="84" viewBox="0 0 251 84" fill="none" xmlns="http://www.w3.org/2000/svg">
<rect width="251" height="84" rx="42" fill="white"/>
<path d="M48.8495 57C47.8825 57 47.0046 56.7583 46.2157 56.2748C45.4269 55.7913 44.7907 55.1551 44.3072 54.3663C43.8237 53.5774 43.582 52.6995 43.582 51.7325V45.7398C43.582 45.2817 43.6583 44.8237 43.811 44.3657C43.9637 43.8822 44.1545 43.4241 44.3836 42.9915C44.1545 42.5589 43.9637 42.1136 43.811 41.6556C43.6583 41.1721 43.582 40.6886 43.582 40.2051V34.7849C43.582 33.7925 43.8237 32.9019 44.3072 32.113C44.7907 31.3242 45.4269 30.7007 46.2157 30.2427C47.0046 29.7592 47.8825 29.5175 48.8495 29.5175H65.5298C66.3696 29.5175 67.1584 29.7083 67.8964 30.09C68.6344 30.4717 69.2578 30.9934 69.7667 31.655C70.3011 32.3166 70.6447 33.0418 70.7973 33.8307V40.2051C70.7973 41.1466 70.5301 42.0755 69.9958 42.9915C70.5301 43.8313 70.7973 44.7474 70.7973 45.7398V51.7325C70.7973 52.6995 70.5556 53.5774 70.0721 54.3663C69.5886 55.1551 68.9524 55.7913 68.1636 56.2748C67.3747 56.7583 66.4968 57 65.5298 57H48.8495ZM49.0403 51.9997H65.339C65.4662 51.9997 65.568 51.9615 65.6444 51.8852C65.7461 51.7834 65.797 51.6689 65.797 51.5417V45.9688C65.797 45.8416 65.7461 45.7398 65.6444 45.6634C65.568 45.5617 65.4662 45.5108 65.339 45.5108H49.0403C48.9131 45.5108 48.7986 45.5617 48.6968 45.6634C48.6204 45.7398 48.5823 45.8416 48.5823 45.9688V51.5417C48.5823 51.6689 48.6204 51.7834 48.6968 51.8852C48.7986 51.9615 48.9131 51.9997 49.0403 51.9997ZM49.0403 40.8922H65.339C65.4662 40.8922 65.568 40.8413 65.6444 40.7395C65.7461 40.6377 65.797 40.5359 65.797 40.4341V35.014C65.797 34.8867 65.7461 34.7849 65.6444 34.7086C65.568 34.6068 65.4662 34.5559 65.339 34.5559H49.0403C48.9131 34.5559 48.7986 34.6068 48.6968 34.7086C48.6204 34.7849 48.5823 34.8867 48.5823 35.014V40.4341C48.5823 40.5359 48.6204 40.6377 48.6968 40.7395C48.7986 40.8413 48.9131 40.8922 49.0403 40.8922ZM80.6828 57C79.7158 57 78.8379 56.7455 78.0491 56.2366C77.2602 55.7022 76.6241 55.0151 76.1406 54.1754C75.6571 53.3357 75.4153 52.445 75.4153 51.5035V34.8995C75.4153 33.907 75.6571 33.0164 76.1406 32.2275C76.6241 31.4132 77.2602 30.7643 78.0491 30.2809C78.8379 29.7719 79.7158 29.5175 80.6828 29.5175H97.3632C98.3302 29.5175 99.2081 29.7719 99.9969 30.2809C100.786 30.7643 101.422 31.4132 101.905 32.2275C102.389 33.0164 102.631 33.907 102.631 34.8995V51.5035C102.631 52.445 102.389 53.3357 101.905 54.1754C101.422 55.0151 100.786 55.7022 99.9969 56.2366C99.2081 56.7455 98.3302 57 97.3632 57H80.6828ZM82.7058 51.7325H97.1723C97.2996 51.7325 97.4014 51.6943 97.4777 51.618C97.5795 51.5162 97.6304 51.4017 97.6304 51.2745V39.289L82.7058 51.7325ZM80.4156 47.0757L95.3402 34.6323H80.8737C80.7464 34.6323 80.6319 34.6832 80.5301 34.7849C80.4538 34.8613 80.4156 34.9631 80.4156 35.0903V47.0757ZM118.878 57V29.5556H141.016C141.983 29.5556 142.874 29.7974 143.688 30.2809C144.503 30.7643 145.152 31.4132 145.635 32.2275C146.119 33.0164 146.36 33.8943 146.36 34.8613V42.2663C146.36 43.2333 146.119 44.1239 145.635 44.9382C145.152 45.7525 144.503 46.4014 143.688 46.8849C142.874 47.3429 141.983 47.572 141.016 47.572L123.916 47.6101V57H118.878ZM124.374 42.4953H140.787C140.915 42.4953 141.029 42.4572 141.131 42.3808C141.233 42.3045 141.284 42.2027 141.284 42.0755V35.0521C141.284 34.9249 141.233 34.8231 141.131 34.7468C141.029 34.645 140.915 34.5941 140.787 34.5941H124.374C124.247 34.5941 124.133 34.645 124.031 34.7468C123.954 34.8231 123.916 34.9249 123.916 35.0521V42.0755C123.916 42.2027 123.954 42.3045 124.031 42.3808C124.133 42.4572 124.247 42.4953 124.374 42.4953ZM149.109 57V29.5175H154.148V40.7013H172.164V29.5175H177.202V57H172.164V45.8161H154.148V57H149.109ZM181.538 57V29.5556H203.677C204.644 29.5556 205.534 29.7974 206.349 30.2809C207.163 30.7643 207.812 31.4132 208.295 32.2275C208.779 33.0164 209.021 33.8943 209.021 34.8613V42.2663C209.021 43.2333 208.779 44.1239 208.295 44.9382C207.812 45.7525 207.163 46.4014 206.349 46.8849C205.534 47.3429 204.644 47.572 203.677 47.572L186.576 47.6101V57H181.538ZM187.035 42.4953H203.448C203.575 42.4953 203.689 42.4572 203.791 42.3808C203.893 42.3045 203.944 42.2027 203.944 42.0755V35.0521C203.944 34.9249 203.893 34.8231 203.791 34.7468C203.689 34.645 203.575 34.5941 203.448 34.5941H187.035C186.907 34.5941 186.793 34.645 186.691 34.7468C186.615 34.8231 186.576 34.9249 186.576 35.0521V42.0755C186.576 42.2027 186.615 42.3045 186.691 42.3808C186.793 42.4572 186.907 42.4953 187.035 42.4953Z" fill="#090909"/>
</svg>
